<?xml version="1.0" encoding="utf-8"?>
<!-- Generator: Adobe Illustrator 24.0.1, SVG Export Plug-In . SVG Version: 6.00 Build 0)  -->
<svg version="1.1" id="Layer_1" xmlns="http://www.w3.org/2000/svg" xmlns:xlink="http://www.w3.org/1999/xlink" x="0px" y="0px"
	 viewBox="0 0 59.25 43.5" style="enable-background:new 0 0 59.25 43.5;" xml:space="preserve">
<style type="text/css">
	.st0{fill:#FCFCFC;}
	.st1{fill:#FFFFFF;}
</style>
<g>
	<path class="st0" d="M249.45,1732.47c0,2.83-0.12,5.51,0.03,8.17c0.21,3.79-1.82,5.57-5.46,5.5c-7.63-0.15-15.26-0.04-22.89-0.05
		c-3.15,0-4.76-1.61-4.76-4.76c0-5.2,0-10.39,0-15.59c0-2.83,1.71-4.54,4.54-4.54c5.35-0.01,10.69,0,16.04,0c0.33,0,0.66,0,1.03,0
		c0.13-0.68,0.23-1.33,0.38-1.96c1.26-5.27,6.35-8.91,11.53-8.27c5.74,0.72,9.86,5.33,9.75,10.96c-0.04,2.08-0.63,4.03-1.82,5.75
		c-0.31,0.45-0.36,0.82-0.12,1.31c0.4,0.81,0.77,1.63,1.09,2.47c0.12,0.33,0.23,0.86,0.07,1.04c-0.19,0.21-0.71,0.23-1.06,0.18
		c-1.43-0.19-2.84-0.59-4.27-0.63C252.19,1732.02,250.84,1732.32,249.45,1732.47z M217.8,1742.9c2.31-2.16,4.65-4.36,6.99-6.56
		c0.22-0.2,0.41-0.48,0.66-0.59c0.2-0.09,0.57-0.06,0.71,0.07c0.14,0.13,0.17,0.5,0.09,0.71c-0.08,0.24-0.32,0.42-0.51,0.61
		c-2.1,2.15-4.2,4.29-6.3,6.44c-0.22,0.22-0.41,0.46-0.83,0.92c0.96,0.14,1.65,0.33,2.34,0.34c7.96,0.02,15.92,0.02,23.88,0
		c0.7,0,1.41-0.22,2.32-0.37c-0.42-0.46-0.62-0.68-0.83-0.89c-2.11-2.14-4.21-4.28-6.32-6.42c-0.19-0.19-0.43-0.37-0.52-0.61
		c-0.08-0.21-0.07-0.62,0.06-0.71c0.19-0.13,0.55-0.14,0.79-0.06c0.23,0.08,0.4,0.35,0.59,0.54c2.06,2.1,4.12,4.2,6.19,6.3
		c0.22,0.22,0.45,0.43,0.89,0.84c0.42-3.8,0.1-7.32,0.21-10.68c-1.85-0.61-3.58-1.17-5.47-1.79c-2.19,1.86-4.57,3.87-6.95,5.89
		c-2.05,1.74-3.78,1.73-5.86-0.03c-3.89-3.3-7.79-6.6-11.69-9.89c-0.17-0.14-0.36-0.26-0.57-0.42
		C217.35,1729.29,217.56,1742.4,217.8,1742.9z M257.39,1731.36c-0.35-0.81-0.58-1.46-0.92-2.05c-0.45-0.8-0.33-1.39,0.2-2.18
		c2.25-3.35,2.41-6.89,0.33-10.33c-2.08-3.45-5.32-5.01-9.31-4.54c-3.84,0.45-6.54,2.65-7.84,6.29c-1.3,3.65-0.57,7.03,2.14,9.81
		c2.7,2.77,6,3.56,9.75,2.47c0.47-0.14,1-0.15,1.48-0.09C254.56,1730.9,255.89,1731.13,257.39,1731.36z M238.05,1722.55
		c-0.14-0.04-0.19-0.08-0.25-0.08c-5.83,0-11.66-0.01-17.49,0c-0.89,0-1.6,0.46-2.14,1.17c-0.65,0.85-0.62,1.08,0.18,1.76
		c0.32,0.27,0.64,0.54,0.96,0.81c3.92,3.32,7.84,6.64,11.77,9.96c1.2,1.01,2.37,1.02,3.59,0.04c0.52-0.41,1.02-0.85,1.52-1.27
		c1.89-1.61,3.79-3.22,5.74-4.88C239.6,1728.01,238.34,1725.5,238.05,1722.55z"/>
	<path class="st0" d="M248.79,1721.02c-1.05,0-2.1,0.04-3.14-0.03c-0.3-0.02-0.58-0.35-0.88-0.54c0.29-0.23,0.57-0.64,0.87-0.65
		c2.12-0.08,4.25-0.1,6.38-0.07c0.28,0,0.55,0.37,0.83,0.57c-0.27,0.21-0.54,0.57-0.82,0.59c-1.07,0.07-2.15,0.03-3.23,0.03
		C248.79,1720.96,248.79,1720.99,248.79,1721.02z"/>
	<path class="st0" d="M247.11,1725.16c-0.54,0-1.09,0.06-1.61-0.03c-0.24-0.04-0.44-0.37-0.65-0.57c0.21-0.21,0.41-0.59,0.63-0.6
		c1.07-0.07,2.15-0.07,3.22-0.03c0.21,0.01,0.41,0.34,0.62,0.52c-0.2,0.22-0.37,0.59-0.6,0.64c-0.52,0.1-1.07,0.03-1.61,0.03
		C247.11,1725.14,247.11,1725.15,247.11,1725.16z"/>
</g>
<path class="st1" d="M52.12,15.32c0-0.04,0-0.09-0.01-0.13c-0.02-0.72-0.09-1.45-0.22-2.19c0-0.01,0-0.03-0.01-0.04
	c0-0.03-0.01-0.05-0.01-0.08c-0.17-1-0.44-1.99-0.83-2.94c-0.03-0.07-0.05-0.13-0.08-0.19c-0.03-0.07-0.06-0.14-0.09-0.2
	c-0.6-1.36-1.4-2.49-2.32-3.42C48.51,6.07,48.47,6.03,48.43,6c-2.4-2.33-5.66-3.28-8.79-3.07c-2.08,0.1-4.03,0.72-5.82,1.93
	c-0.35,0.23-0.69,0.49-1.01,0.76c0,0-0.01,0.01-0.01,0.01c0,0,0,0-0.01,0c-0.77,0.65-1.38,1.49-2.04,2.22
	c-0.66-0.73-1.27-1.57-2.04-2.22c0,0,0,0-0.01,0c0,0-0.01-0.01-0.01-0.01c-0.32-0.27-0.66-0.53-1.01-0.76
	c-1.78-1.21-3.74-1.83-5.82-1.93C18.73,2.71,15.47,3.67,13.07,6c-0.04,0.04-0.08,0.07-0.12,0.11c-0.93,0.93-1.72,2.06-2.32,3.42
	c-0.03,0.07-0.06,0.14-0.09,0.2c-0.03,0.06-0.06,0.13-0.08,0.19c-0.39,0.95-0.66,1.94-0.83,2.94c0,0.03-0.01,0.05-0.01,0.08
	c0,0.01,0,0.03-0.01,0.04c-0.13,0.74-0.2,1.47-0.22,2.19c0,0.04-0.01,0.09-0.01,0.13c0,0.03,0,0.06,0,0.09
	c-0.04,3.29,0.99,6.41,2.77,9.39c0.53,0.89,1.11,1.74,1.74,2.55c0.04,0.08,0.11,0.16,0.18,0.23c1.56,2,3.37,3.79,5.32,5.46
	c0.05,0.04,0.1,0.09,0.15,0.12c3.25,2.78,6.86,5.1,10.7,7.13c0.01,0.01,0.02,0.01,0.02,0.02c0.12,0.08,0.31,0.11,0.49,0.11
	c0.19,0,0.37-0.03,0.49-0.11c0.01-0.01,0.02-0.01,0.02-0.02c3.84-2.03,7.45-4.35,10.7-7.13c0.05-0.04,0.1-0.08,0.15-0.12
	c1.94-1.67,3.75-3.46,5.32-5.46c0.07-0.07,0.14-0.15,0.18-0.23c0.62-0.81,1.2-1.66,1.74-2.55c1.78-2.98,2.81-6.09,2.77-9.39
	C52.12,15.38,52.12,15.35,52.12,15.32z M14.86,26.53c-0.02-0.02-0.04-0.04-0.06-0.07c-0.37-0.49-0.73-1-1.07-1.52
	c-0.17-0.26-0.33-0.52-0.49-0.79c-0.02-0.04-0.04-0.08-0.06-0.12c-0.64-1.38-1.42-2.72-1.84-4.17c-0.28-0.97-0.48-1.93-0.59-2.88
	c-0.09-0.92-0.11-1.85-0.03-2.82c0.03-0.41,0.08-0.81,0.15-1.21c0.34-1.82,1.11-3.58,2.37-5.26c0.23-0.31,0.57-0.55,0.8-0.86
	c0.62-0.58,1.32-1.08,2.09-1.49c0.13-0.02,0.27-0.13,0.41-0.2c0.02-0.01,0.05-0.02,0.07-0.03c0.23-0.1,0.46-0.2,0.7-0.28
	c0.03-0.01,0.05-0.02,0.08-0.03c0.04-0.02,0.09-0.03,0.13-0.04c0.37-0.12,0.74-0.23,1.13-0.31c0.58-0.12,1.15-0.21,1.71-0.25
	c2.17-0.14,4.34,0.35,6.14,1.4c0.74,0.45,1.44,1.01,2.1,1.69c0.08,0.08,0.15,0.15,0.22,0.23c0.62,0.73,1.09,1.52,1.25,2.43
	c0.01,0.06,0.02,0.11,0.03,0.17c0,0.01,0,0.03,0.01,0.04c0.03,0.26,0.04,0.52,0.02,0.8h0c0,0.01,0,0.02,0,0.04
	c-0.09,1.22-0.04,2.45,0,3.67c0.01,0.32,0.15,0.73,0.38,0.91c0.15,0.11,0.57-0.12,0.86-0.22c0.1-0.03,0.19-0.12,0.28-0.17
	c0.97-0.54,2.12-0.4,2.94,0.34c0.8,0.72,1.06,1.92,0.62,2.9c-0.44,1-1.46,1.63-2.56,1.48c-0.45-0.06-0.87-0.33-1.31-0.47
	c-0.29-0.1-0.69-0.28-0.89-0.17c-0.21,0.12-0.3,0.54-0.35,0.85c-0.06,0.35-0.01,0.72-0.01,1.08c0,1.72,0,3.44,0,5.17
	c-3.25-0.39-5.25,0.97-5.29,3.56c-0.02,1.07,0.37,2.01,1.14,2.77c1.17,1.14,2.58,1.24,4.1,0.87c0,1.76,0,3.44,0,5.21
	c-0.24-0.12-0.42-0.18-0.57-0.29c-2.85-1.93-5.83-3.69-8.5-5.85C18.75,30.84,16.88,28.59,14.86,26.53z M46.7,26.46
	c-0.02,0.02-0.04,0.04-0.06,0.07c-2.02,2.06-3.89,4.31-6.13,6.11c-2.67,2.15-5.65,3.92-8.5,5.85c-0.15,0.1-0.33,0.17-0.57,0.29
	c0-1.73,0-3.37,0-5.09h-0.04c0-0.33-0.01-0.67-0.01-1c-0.01-0.3-0.13-0.72-0.34-0.85c-0.19-0.11-0.58,0.08-0.88,0.17
	c-0.13,0.04-0.23,0.15-0.36,0.21c-1.09,0.58-2.37,0.32-3.16-0.64c-0.77-0.94-0.77-2.29,0.02-3.22c0.8-0.95,2.08-1.19,3.17-0.61
	c1.38,0.74,1.57,0.63,1.57-0.93c0-0.31,0-0.61,0-0.92c0-1.63,0-3.26,0-4.95c1.92,0.54,3.48,0.18,4.6-1.4
	c0.9-1.27,0.96-2.68,0.18-4.01c-1.07-1.84-2.76-2.22-4.79-1.7c0-0.97,0.07-1.86-0.02-2.74c-0.01-0.08-0.01-0.16-0.02-0.24
	c0-0.03,0-0.06,0-0.08c0-0.06,0-0.12,0-0.17c0-0.04,0-0.08,0-0.12c0-0.04,0-0.07,0.01-0.11c0.08-1.11,0.59-2.02,1.31-2.87
	c0.07-0.08,0.14-0.15,0.21-0.23c0.67-0.68,1.37-1.24,2.1-1.69c1.8-1.04,3.97-1.53,6.14-1.4c0.56,0.04,1.13,0.13,1.71,0.25
	c0.39,0.08,0.77,0.19,1.13,0.31c0.04,0.01,0.09,0.03,0.13,0.04c0.03,0.01,0.05,0.02,0.08,0.03c0.24,0.09,0.47,0.18,0.7,0.28
	c0.02,0.01,0.05,0.02,0.07,0.03c0.14,0.07,0.28,0.18,0.41,0.2c0.77,0.4,1.47,0.9,2.09,1.49c0.23,0.31,0.56,0.55,0.8,0.86
	c1.26,1.67,2.03,3.43,2.37,5.26c0.07,0.4,0.12,0.8,0.15,1.21c0.08,0.97,0.06,1.91-0.03,2.82c-0.11,0.95-0.31,1.91-0.59,2.88
	c-0.42,1.45-1.2,2.79-1.84,4.17c-0.02,0.04-0.04,0.08-0.06,0.12c-0.16,0.26-0.32,0.53-0.49,0.79C47.44,25.46,47.08,25.97,46.7,26.46
	z"/>
</svg>
