<?xml version="1.0" encoding="utf-8"?>
<!-- Generator: Adobe Illustrator 24.0.1, SVG Export Plug-In . SVG Version: 6.00 Build 0)  -->
<svg version="1.1" id="Layer_1" xmlns="http://www.w3.org/2000/svg" xmlns:xlink="http://www.w3.org/1999/xlink" x="0px" y="0px"
	 viewBox="0 0 25.68 21.19" style="enable-background:new 0 0 25.68 21.19;" xml:space="preserve">
<style type="text/css">
	.st0{fill:#ED1F24;}
</style>
<g>
	<rect x="19.27" y="5.38" class="st0" width="2.5" height="8.28"/>
	<path class="st0" d="M16.43,20.28H2.3c-0.71,0-1.28-0.57-1.28-1.28v0c0-4.4,3.57-7.97,7.97-7.97h0.75c4.4,0,7.97,3.57,7.97,7.97v0
		C17.71,19.71,17.13,20.28,16.43,20.28z"/>
	<path class="st0" d="M9.61,9.84L9.61,9.84c-2.47,0-4.47-2-4.47-4.47v0c0-2.47,2-4.47,4.47-4.47h0c2.47,0,4.47,2,4.47,4.47v0
		C14.08,7.84,12.08,9.84,9.61,9.84z"/>
	
		<rect x="19.27" y="5.38" transform="matrix(-1.836970e-16 1 -1 -1.836970e-16 30.0352 -11.0039)" class="st0" width="2.5" height="8.28"/>
</g>
</svg>
