<?xml version="1.0" encoding="utf-8"?>
<!-- Generator: Adobe Illustrator 24.0.1, SVG Export Plug-In . SVG Version: 6.00 Build 0)  -->
<svg version="1.1" id="Layer_1" xmlns="http://www.w3.org/2000/svg" xmlns:xlink="http://www.w3.org/1999/xlink" x="0px" y="0px"
	 viewBox="0 0 59.25 43.5" style="enable-background:new 0 0 59.25 43.5;" xml:space="preserve">
<style type="text/css">
	.st0{fill:#FFFFFF;}
	.st1{fill:#FCFCFC;}
</style>
<g>
	<path class="st0" d="M41.07,25.69c0,2.83-0.12,5.51,0.03,8.17c0.21,3.79-1.82,5.57-5.46,5.5c-7.63-0.15-15.26-0.04-22.89-0.05
		c-3.15,0-4.76-1.61-4.76-4.76c0-5.2,0-10.39,0-15.59c0-2.83,1.71-4.54,4.54-4.54c5.35-0.01,10.69,0,16.04,0c0.33,0,0.66,0,1.03,0
		c0.13-0.68,0.23-1.33,0.38-1.96c1.26-5.27,6.35-8.91,11.53-8.27c5.74,0.72,9.86,5.33,9.75,10.96c-0.04,2.08-0.63,4.03-1.82,5.75
		c-0.31,0.45-0.36,0.82-0.12,1.31c0.4,0.81,0.77,1.63,1.09,2.47c0.12,0.33,0.23,0.86,0.07,1.04c-0.19,0.21-0.71,0.23-1.06,0.18
		c-1.43-0.19-2.84-0.59-4.27-0.63C43.81,25.24,42.46,25.54,41.07,25.69z M9.43,36.12c2.31-2.16,4.65-4.36,6.99-6.56
		c0.22-0.21,0.41-0.48,0.66-0.59c0.2-0.09,0.57-0.06,0.71,0.07c0.14,0.13,0.17,0.5,0.09,0.71c-0.08,0.24-0.32,0.42-0.51,0.61
		c-2.1,2.15-4.2,4.29-6.3,6.44c-0.22,0.22-0.41,0.46-0.83,0.92c0.96,0.14,1.65,0.33,2.34,0.34c7.96,0.02,15.92,0.02,23.88,0
		c0.7,0,1.41-0.22,2.32-0.37c-0.42-0.46-0.62-0.68-0.83-0.89c-2.11-2.14-4.21-4.28-6.32-6.42c-0.19-0.19-0.43-0.37-0.52-0.61
		c-0.08-0.21-0.07-0.62,0.06-0.71c0.19-0.13,0.55-0.14,0.79-0.06c0.23,0.08,0.4,0.35,0.59,0.54c2.06,2.1,4.12,4.2,6.19,6.3
		c0.22,0.22,0.45,0.43,0.89,0.84c0.42-3.8,0.1-7.32,0.21-10.68c-1.85-0.61-3.58-1.17-5.47-1.79c-2.19,1.86-4.57,3.87-6.95,5.89
		c-2.05,1.74-3.78,1.73-5.86-0.03c-3.89-3.3-7.79-6.6-11.69-9.89c-0.17-0.14-0.36-0.26-0.57-0.42C8.98,22.51,9.18,35.62,9.43,36.12z
		 M49.02,24.58c-0.35-0.81-0.58-1.46-0.92-2.05c-0.45-0.8-0.33-1.39,0.2-2.18c2.25-3.35,2.41-6.89,0.33-10.33
		C46.55,6.56,43.32,5,39.33,5.48c-3.84,0.45-6.54,2.65-7.84,6.29c-1.3,3.65-0.57,7.03,2.14,9.81c2.7,2.77,6,3.56,9.75,2.47
		c0.47-0.14,1-0.15,1.48-0.09C46.19,24.12,47.51,24.35,49.02,24.58z M29.68,15.77c-0.14-0.04-0.19-0.08-0.25-0.08
		c-5.83,0-11.66-0.01-17.49,0c-0.89,0-1.6,0.46-2.14,1.17c-0.65,0.85-0.62,1.08,0.18,1.76c0.32,0.27,0.64,0.54,0.96,0.81
		c3.92,3.32,7.84,6.64,11.77,9.96c1.2,1.01,2.37,1.02,3.59,0.04c0.52-0.41,1.02-0.85,1.52-1.27c1.89-1.61,3.79-3.22,5.74-4.88
		C31.22,21.24,29.97,18.72,29.68,15.77z"/>
	<path class="st0" d="M40.41,14.25c-1.05,0-2.1,0.04-3.14-0.03c-0.3-0.02-0.58-0.35-0.88-0.54c0.29-0.23,0.57-0.64,0.87-0.65
		c2.12-0.08,4.25-0.1,6.38-0.07c0.28,0,0.55,0.37,0.83,0.57c-0.27,0.21-0.54,0.57-0.82,0.59c-1.07,0.07-2.15,0.03-3.23,0.03
		C40.41,14.18,40.41,14.21,40.41,14.25z"/>
	<path class="st0" d="M38.73,18.39c-0.54,0-1.09,0.06-1.61-0.03c-0.24-0.04-0.44-0.37-0.65-0.57c0.21-0.21,0.41-0.59,0.63-0.6
		c1.07-0.07,2.15-0.07,3.22-0.03c0.21,0.01,0.41,0.34,0.62,0.52c-0.2,0.22-0.37,0.59-0.6,0.64c-0.52,0.1-1.07,0.03-1.61,0.03
		C38.73,18.36,38.73,18.37,38.73,18.39z"/>
</g>
<g>
	<path class="st1" d="M249.45,1732.47c0,2.83-0.12,5.51,0.03,8.17c0.21,3.79-1.82,5.57-5.46,5.5c-7.63-0.15-15.26-0.04-22.89-0.05
		c-3.15,0-4.76-1.61-4.76-4.76c0-5.2,0-10.39,0-15.59c0-2.83,1.71-4.54,4.54-4.54c5.35-0.01,10.69,0,16.04,0c0.33,0,0.66,0,1.03,0
		c0.13-0.68,0.23-1.33,0.38-1.96c1.26-5.27,6.35-8.91,11.53-8.27c5.74,0.72,9.86,5.33,9.75,10.96c-0.04,2.08-0.63,4.03-1.82,5.75
		c-0.31,0.45-0.36,0.82-0.12,1.31c0.4,0.81,0.77,1.63,1.09,2.47c0.12,0.33,0.23,0.86,0.07,1.04c-0.19,0.21-0.71,0.23-1.06,0.18
		c-1.43-0.19-2.84-0.59-4.27-0.63C252.19,1732.02,250.84,1732.32,249.45,1732.47z M217.8,1742.9c2.31-2.16,4.65-4.36,6.99-6.56
		c0.22-0.2,0.41-0.48,0.66-0.59c0.2-0.09,0.57-0.06,0.71,0.07c0.14,0.13,0.17,0.5,0.09,0.71c-0.08,0.24-0.32,0.42-0.51,0.61
		c-2.1,2.15-4.2,4.29-6.3,6.44c-0.22,0.22-0.41,0.46-0.83,0.92c0.96,0.14,1.65,0.33,2.34,0.34c7.96,0.02,15.92,0.02,23.88,0
		c0.7,0,1.41-0.22,2.32-0.37c-0.42-0.46-0.62-0.68-0.83-0.89c-2.11-2.14-4.21-4.28-6.32-6.42c-0.19-0.19-0.43-0.37-0.52-0.61
		c-0.08-0.21-0.07-0.62,0.06-0.71c0.19-0.13,0.55-0.14,0.79-0.06c0.23,0.08,0.4,0.35,0.59,0.54c2.06,2.1,4.12,4.2,6.19,6.3
		c0.22,0.22,0.45,0.43,0.89,0.84c0.42-3.8,0.1-7.32,0.21-10.68c-1.85-0.61-3.58-1.17-5.47-1.79c-2.19,1.86-4.57,3.87-6.95,5.89
		c-2.05,1.74-3.78,1.73-5.86-0.03c-3.89-3.3-7.79-6.6-11.69-9.89c-0.17-0.14-0.36-0.26-0.57-0.42
		C217.35,1729.29,217.56,1742.4,217.8,1742.9z M257.39,1731.36c-0.35-0.81-0.58-1.46-0.92-2.05c-0.45-0.8-0.33-1.39,0.2-2.18
		c2.25-3.35,2.41-6.89,0.33-10.33c-2.08-3.45-5.32-5.01-9.31-4.54c-3.84,0.45-6.54,2.65-7.84,6.29c-1.3,3.65-0.57,7.03,2.14,9.81
		c2.7,2.77,6,3.56,9.75,2.47c0.47-0.14,1-0.15,1.48-0.09C254.56,1730.9,255.89,1731.13,257.39,1731.36z M238.05,1722.55
		c-0.14-0.04-0.19-0.08-0.25-0.08c-5.83,0-11.66-0.01-17.49,0c-0.89,0-1.6,0.46-2.14,1.17c-0.65,0.85-0.62,1.08,0.18,1.76
		c0.32,0.27,0.64,0.54,0.96,0.81c3.92,3.32,7.84,6.64,11.77,9.96c1.2,1.01,2.37,1.02,3.59,0.04c0.52-0.41,1.02-0.85,1.52-1.27
		c1.89-1.61,3.79-3.22,5.74-4.88C239.6,1728.01,238.34,1725.5,238.05,1722.55z"/>
	<path class="st1" d="M248.79,1721.02c-1.05,0-2.1,0.04-3.14-0.03c-0.3-0.02-0.58-0.35-0.88-0.54c0.29-0.23,0.57-0.64,0.87-0.65
		c2.12-0.08,4.25-0.1,6.38-0.07c0.28,0,0.55,0.37,0.83,0.57c-0.27,0.21-0.54,0.57-0.82,0.59c-1.07,0.07-2.15,0.03-3.23,0.03
		C248.79,1720.96,248.79,1720.99,248.79,1721.02z"/>
	<path class="st1" d="M247.11,1725.16c-0.54,0-1.09,0.06-1.61-0.03c-0.24-0.04-0.44-0.37-0.65-0.57c0.21-0.21,0.41-0.59,0.63-0.6
		c1.07-0.07,2.15-0.07,3.22-0.03c0.21,0.01,0.41,0.34,0.62,0.52c-0.2,0.22-0.37,0.59-0.6,0.64c-0.52,0.1-1.07,0.03-1.61,0.03
		C247.11,1725.14,247.11,1725.15,247.11,1725.16z"/>
</g>
</svg>
