<?xml version="1.0" encoding="utf-8"?>
<!-- Generator: Adobe Illustrator 24.0.1, SVG Export Plug-In . SVG Version: 6.00 Build 0)  -->
<svg version="1.1" id="Layer_1" xmlns="http://www.w3.org/2000/svg" xmlns:xlink="http://www.w3.org/1999/xlink" x="0px" y="0px"
	 viewBox="0 0 25.68 21.19" style="enable-background:new 0 0 25.68 21.19;" xml:space="preserve">
<style type="text/css">
	.st0{fill:#ED1F24;}
</style>
<g>
	<path class="st0" d="M2.11,14.19c0,0,1.93-0.7,4.27-1.22c0.67,0.29,1.41,0.5,2.19,0.61c0.44,0.06,0.89,0.1,1.36,0.1
		c4.07,0,7.38-2.57,7.38-5.75c0-0.27-0.03-0.54-0.08-0.8c-0.5-2.79-3.57-4.95-7.29-4.95c-4.07,0-7.38,2.57-7.38,5.75"/>
	<path class="st0" d="M2.54,7.94c0,1.09,0.39,2.11,1.07,2.98c-0.36,0.85-0.91,2.12-1.51,3.27"/>
	<path class="st0" d="M22.13,16.75c0.9-0.95,1.44-2.13,1.44-3.41c0-2.77-2.48-5.07-5.76-5.56c0.05,0.26,0.08,0.52,0.08,0.79
		c0,3.12-3.16,5.66-7.06,5.66c-0.44,0-0.88-0.04-1.3-0.1c0.48,2.75,3.42,4.86,6.98,4.86c1.55,0,2.97-0.4,4.13-1.08l2.93,0.59
		L22.13,16.75z"/>
</g>
</svg>
