<?xml version="1.0" encoding="utf-8"?>
<!-- Generator: Adobe Illustrator 24.0.1, SVG Export Plug-In . SVG Version: 6.00 Build 0)  -->
<svg version="1.1" id="Layer_1" xmlns="http://www.w3.org/2000/svg" xmlns:xlink="http://www.w3.org/1999/xlink" x="0px" y="0px"
	 viewBox="0 0 160.13 79.5" style="enable-background:new 0 0 160.13 79.5;" xml:space="preserve">
<style type="text/css">
	.st0{fill:#FFFFFF;}
	.st1{font-family:'Montserrat-MediumItalic';}
	.st2{font-size:33.6394px;}
	.st3{font-family:'Montserrat-SemiBoldItalic';}
	.st4{font-size:30.1892px;}
</style>
<g>
	<g>
		<g>
			<g>
				<path class="st0" d="M52.22,16.28c-1.15,0-1.73,1.35-1.73,3.02s1.01,2.21,1.65,2.23c0.72,0.02,1.65-0.56,1.65-2.23
					C53.8,17.63,53.38,16.28,52.22,16.28z"/>
				<path class="st0" d="M51.36,36.06c1.56-7.21-0.41-9.04-1.29-10.34c-0.88-1.29-0.27-2.38-0.27-2.38c4.76-5.37,0.27-8.2-1.83-8.22
					c-7.54-0.07-3.09,10.06-3.09,10.06c-6.89,4.01-0.51,12.09-0.51,12.09C39,39.85,34.31,48.48,34.31,48.48
					c1.7-5.57-3.47-23.85-3.47-23.85c2.11-0.27,7.41-3.74,7.41-3.74l2.85,1.43c-1.02-0.61-1.77-2.31-1.77-2.31
					c6.18-5.5,2.24-10.87-1.36-10.87c-4.58,0-5.1,3.26-4.63,4.88c0.73,2.54,2.73,5.18,2.73,5.18c-4.82,3.74-9.38,3.53-9.38,3.53
					l0.4,2.88c5.65,3.78,5.92,30.89,5.92,30.89C35.47,43.79,46,37.27,46,37.27c-6.59-6.45,0.34-10.94,0.34-10.94
					c4.14,1.02,1.36,11.69,1.36,11.69c11.69,8.43,12.43,23.03,12.43,23.03c-6.05-3.6-15.94-0.57-21.24,1.46
					c-5.3,2.04-10.22-7.31-10.22-7.31c3.67,15.15,13.86,7.75,21.47,6.39c3.49-0.62,12.71,3.81,12.71,3.81
					C66.11,49.03,51.36,36.06,51.36,36.06z M35.06,14.31c0-1.73,1.19-3.13,2.65-3.13c1.46,0,2.65,1.4,2.65,3.13
					s-1.19,3.13-2.65,3.13C36.24,17.43,35.06,16.03,35.06,14.31z M47.49,22.39c-0.61-0.02-1.56-0.53-1.56-2.11s0.54-2.85,1.63-2.85
					s1.49,1.28,1.49,2.85C49.05,21.86,48.17,22.41,47.49,22.39z"/>
			</g>
			<path class="st0" d="M54.47,57.77c0,0-0.07-10.94-7.95-13.11c0,0,6.59,5.16,7.68,13.11"/>
		</g>
	</g>
	<text transform="matrix(1 0 0 1 57.0327 38.2059)" class="st0 st1 st2">Noor</text>
	<text transform="matrix(1 0 0 1 64.7563 63.286)" class="st0 st3 st4">Nikah</text>
	<g>
		<path class="st0" d="M8.87,39.5c0-18.98,15.67-34.36,35.01-34.36c9.54,0,18.18,3.75,24.49,9.82C61.53,7.14,51.49,2.19,40.29,2.19
			c-20.6,0-37.31,16.7-37.31,37.31c0,20.6,16.7,37.31,37.31,37.31c11.2,0,21.25-4.95,28.09-12.77c-6.31,6.07-14.95,9.82-24.49,9.82
			C24.55,73.86,8.87,58.48,8.87,39.5z"/>
	</g>
</g>
</svg>
