<?xml version="1.0" encoding="utf-8"?>
<!-- Generator: Adobe Illustrator 24.0.1, SVG Export Plug-In . SVG Version: 6.00 Build 0)  -->
<svg version="1.1" id="Layer_1" xmlns="http://www.w3.org/2000/svg" xmlns:xlink="http://www.w3.org/1999/xlink" x="0px" y="0px"
	 viewBox="0 0 59.25 43.5" style="enable-background:new 0 0 59.25 43.5;" xml:space="preserve">
<style type="text/css">
	.st0{fill:#FCFCFC;}
	.st1{fill:#FFFFFF;}
</style>
<g>
	<path class="st0" d="M249.45,1732.47c0,2.83-0.12,5.51,0.03,8.17c0.21,3.79-1.82,5.57-5.46,5.5c-7.63-0.15-15.26-0.04-22.89-0.05
		c-3.15,0-4.76-1.61-4.76-4.76c0-5.2,0-10.39,0-15.59c0-2.83,1.71-4.54,4.54-4.54c5.35-0.01,10.69,0,16.04,0c0.33,0,0.66,0,1.03,0
		c0.13-0.68,0.23-1.33,0.38-1.96c1.26-5.27,6.35-8.91,11.53-8.27c5.74,0.72,9.86,5.33,9.75,10.96c-0.04,2.08-0.63,4.03-1.82,5.75
		c-0.31,0.45-0.36,0.82-0.12,1.31c0.4,0.81,0.77,1.63,1.09,2.47c0.12,0.33,0.23,0.86,0.07,1.04c-0.19,0.21-0.71,0.23-1.06,0.18
		c-1.43-0.19-2.84-0.59-4.27-0.63C252.19,1732.02,250.84,1732.32,249.45,1732.47z M217.8,1742.9c2.31-2.16,4.65-4.36,6.99-6.56
		c0.22-0.2,0.41-0.48,0.66-0.59c0.2-0.09,0.57-0.06,0.71,0.07c0.14,0.13,0.17,0.5,0.09,0.71c-0.08,0.24-0.32,0.42-0.51,0.61
		c-2.1,2.15-4.2,4.29-6.3,6.44c-0.22,0.22-0.41,0.46-0.83,0.92c0.96,0.14,1.65,0.33,2.34,0.34c7.96,0.02,15.92,0.02,23.88,0
		c0.7,0,1.41-0.22,2.32-0.37c-0.42-0.46-0.62-0.68-0.83-0.89c-2.11-2.14-4.21-4.28-6.32-6.42c-0.19-0.19-0.43-0.37-0.52-0.61
		c-0.08-0.21-0.07-0.62,0.06-0.71c0.19-0.13,0.55-0.14,0.79-0.06c0.23,0.08,0.4,0.35,0.59,0.54c2.06,2.1,4.12,4.2,6.19,6.3
		c0.22,0.22,0.45,0.43,0.89,0.84c0.42-3.8,0.1-7.32,0.21-10.68c-1.85-0.61-3.58-1.17-5.47-1.79c-2.19,1.86-4.57,3.87-6.95,5.89
		c-2.05,1.74-3.78,1.73-5.86-0.03c-3.89-3.3-7.79-6.6-11.69-9.89c-0.17-0.14-0.36-0.26-0.57-0.42
		C217.35,1729.29,217.56,1742.4,217.8,1742.9z M257.39,1731.36c-0.35-0.81-0.58-1.46-0.92-2.05c-0.45-0.8-0.33-1.39,0.2-2.18
		c2.25-3.35,2.41-6.89,0.33-10.33c-2.08-3.45-5.32-5.01-9.31-4.54c-3.84,0.45-6.54,2.65-7.84,6.29c-1.3,3.65-0.57,7.03,2.14,9.81
		c2.7,2.77,6,3.56,9.75,2.47c0.47-0.14,1-0.15,1.48-0.09C254.56,1730.9,255.89,1731.13,257.39,1731.36z M238.05,1722.55
		c-0.14-0.04-0.19-0.08-0.25-0.08c-5.83,0-11.66-0.01-17.49,0c-0.89,0-1.6,0.46-2.14,1.17c-0.65,0.85-0.62,1.08,0.18,1.76
		c0.32,0.27,0.64,0.54,0.96,0.81c3.92,3.32,7.84,6.64,11.77,9.96c1.2,1.01,2.37,1.02,3.59,0.04c0.52-0.41,1.02-0.85,1.52-1.27
		c1.89-1.61,3.79-3.22,5.74-4.88C239.6,1728.01,238.34,1725.5,238.05,1722.55z"/>
	<path class="st0" d="M248.79,1721.02c-1.05,0-2.1,0.04-3.14-0.03c-0.3-0.02-0.58-0.35-0.88-0.54c0.29-0.23,0.57-0.64,0.87-0.65
		c2.12-0.08,4.25-0.1,6.38-0.07c0.28,0,0.55,0.37,0.83,0.57c-0.27,0.21-0.54,0.57-0.82,0.59c-1.07,0.07-2.15,0.03-3.23,0.03
		C248.79,1720.96,248.79,1720.99,248.79,1721.02z"/>
	<path class="st0" d="M247.11,1725.16c-0.54,0-1.09,0.06-1.61-0.03c-0.24-0.04-0.44-0.37-0.65-0.57c0.21-0.21,0.41-0.59,0.63-0.6
		c1.07-0.07,2.15-0.07,3.22-0.03c0.21,0.01,0.41,0.34,0.62,0.52c-0.2,0.22-0.37,0.59-0.6,0.64c-0.52,0.1-1.07,0.03-1.61,0.03
		C247.11,1725.14,247.11,1725.15,247.11,1725.16z"/>
</g>
<g>
	<path class="st1" d="M46.38,11.46c-0.02-0.91-0.51-1.36-1.42-1.38c-0.3-0.01-0.59,0-0.89,0c-0.92,0-1.85,0-2.81,0
		c0-1.29,0-2.47,0-3.65c-0.01-1.54-0.82-2.34-2.37-2.34c-4.96,0-9.93,0.01-14.89-0.01c-0.99,0-1.81,0.32-2.52,0.99
		c-1.69,1.6-3.38,3.19-5.11,4.74c-0.88,0.79-1.27,1.71-1.26,2.89c0.02,2.13,0.02,7.43,0.01,11.08c0,0.06,0,0.13,0,0.19
		c0,0.89,0,1.78,0,2.67c0,0.11-0.01,0.22,0,0.33c0,3.28,0,6.56,0.01,9.84c0,1.47,0.82,2.25,2.31,2.25c7.15,0,14.3,0,21.45,0
		c1.59,0,2.38-0.8,2.38-2.4c0-3.37,0-6.74,0-10.11c0-0.24,0-0.48,0-0.75c1.22,0,2.33,0,3.44,0c1.23,0,1.68-0.44,1.68-1.7
		c0.01-2.87,0-5.74,0-8.61C46.39,14.14,46.4,12.8,46.38,11.46z M22.55,5.49c0,0.92,0,1.67,0,2.43c0,0.68,0.01,1.36,0,2.04
		c-0.01,0.59-0.29,1.09-0.89,1.11c-1.64,0.06-3.29,0.02-5.11,0.02C18.58,9.19,20.49,7.4,22.55,5.49z M38.83,38.01
		c-7.1,0-14.21,0-21.31,0c-1.06,0-1.38-0.33-1.38-1.39c0-3.2,0-6.4,0-9.6c0.03-0.12,0.01-0.27,0-0.41c0-0.88,0-1.76,0-2.63
		c0-0.08,0-0.15,0-0.23c0-3.59,0-8.8,0-10.87c0-0.24,0.02-0.48,0.03-0.74c1.79,0,3.5,0.01,5.21,0c1.28-0.01,2.13-0.84,2.17-2.13
		c0.02-0.68,0.01-1.37,0.01-2.05c0-0.93,0-1.85,0-2.84c0.34,0,0.59,0,0.84,0c4.76,0,9.52,0,14.28,0c0.25,0,0.55-0.06,0.74,0.05
		c0.3,0.19,0.73,0.49,0.74,0.76c0.08,1.35,0.03,2.71,0.03,4.14c-0.31,0-0.56,0-0.8,0c-1.07,0-2.14-0.02-3.2,0.02
		c-0.99-0.05-4.29-0.02-5.07-0.01c-1,0.01-1.46,0.47-1.47,1.46c-0.01,1.73,0,3.46,0,5.19c0,0.24,0,0.48,0,0.75c-2.71,0-5.3,0-7.9,0
		c-0.2,0-0.44-0.05-0.61,0.03c-0.19,0.1-0.45,0.31-0.45,0.48c-0.01,0.17,0.23,0.41,0.42,0.51c0.16,0.09,0.4,0.04,0.6,0.04
		c2.39,0,4.78,0,7.17,0c0.24,0,0.48,0.02,0.7,0.03c0,0.45,0,0.83,0,1.25c-0.3,0-0.55,0-0.8,0c-2.35,0-4.69,0-7.04,0
		c-0.2,0-0.45-0.06-0.6,0.03c-0.2,0.12-0.43,0.34-0.47,0.54c-0.02,0.12,0.28,0.35,0.48,0.45c0.15,0.07,0.36,0.02,0.54,0.02
		c2.39,0,4.78,0,7.17,0c0.24,0,0.48,0,0.73,0c0,0.83,0,1.54,0,2.34c-0.28,0-0.52,0-0.77,0c-2.39,0-4.78,0-7.17,0
		c-0.2,0-0.44-0.04-0.6,0.04c-0.17,0.09-0.38,0.31-0.38,0.48c0,0.16,0.2,0.39,0.37,0.48c0.16,0.09,0.4,0.05,0.6,0.05
		c2.41,0,4.83,0,7.24,0c0.24,0,0.48,0.02,0.69,0.03c0,0.46,0,0.84,0,1.25c-0.3,0-0.55,0-0.8,0c-2.37,0-4.74,0-7.1,0
		c-0.23,0-0.47-0.02-0.67,0.07c-0.15,0.07-0.35,0.3-0.33,0.43c0.02,0.18,0.19,0.4,0.36,0.5c0.16,0.09,0.4,0.04,0.6,0.04
		c2.41,0,4.83,0,7.24,0c0.24,0,0.48,0.02,0.76,0.03c0,0.48,0.01,0.89,0,1.3c-0.03,0.63,0.2,1.12,0.79,1.38
		c0.63,0.27,1.14,0.03,1.59-0.43c0.88-0.92,1.78-1.83,2.68-2.73c0.15-0.15,0.36-0.35,0.54-0.35c1.63-0.03,3.27-0.02,4.93-0.02
		c0.01,0.27,0.03,0.47,0.03,0.66c0,3.39,0,6.79,0,10.18C40.21,37.72,39.92,38.01,38.83,38.01z M44.53,24.75
		c-3.01-0.03-6.01-0.01-9.02-0.02c-0.61,0-1.09,0.19-1.51,0.64c-0.86,0.91-1.73,1.81-2.62,2.7c-0.14,0.14-0.37,0.21-0.56,0.31
		c-0.06-0.18-0.17-0.37-0.17-0.55c-0.01-5.37,0-10.75-0.01-16.12c0-0.49,0.22-0.63,0.66-0.62c0.67,0.02,3.48,0.04,4.63,0
		c0.14,0.05,0.34,0.01,0.51,0.01c2.69,0,5.37,0.02,8.06-0.02c0.71-0.01,0.88,0.22,0.87,0.9c-0.03,3.98-0.03,7.97,0,11.95
		C45.39,24.6,45.17,24.75,44.53,24.75z"/>
	<path class="st1" d="M41.22,15.45c0.01-0.25-0.02-0.5-0.05-0.75c-0.21-1.55-1.4-2.65-2.99-2.77c-1.41-0.11-2.8,0.83-3.2,2.25
		c-0.14,0.51-0.15,1.08-0.15,1.62c0,0.56-0.05,1.03-0.48,1.48c-0.27,0.28-0.4,0.77-0.43,1.18c-0.06,0.86-0.05,1.73-0.01,2.59
		c0.04,1.15,0.9,2.01,2.05,2.05c0.7,0.03,1.41,0.01,2.11,0.01c0,0,0,0,0,0c0.73,0,1.47,0.1,2.18-0.03c0.54-0.1,1.13-0.39,1.51-0.78
		c0.72-0.74,0.77-4.27,0.04-5.01C41.25,16.72,41.19,16.13,41.22,15.45z M36.74,13.38c0.72-0.53,1.52-0.58,2.31-0.15
		c1.24,0.69,1.2,1.86,1.11,3.12c-1.44,0-2.84,0-4.28,0C35.77,15.22,35.71,14.13,36.74,13.38z M41.21,20.96
		c-0.03,0.72-0.47,1.13-1.19,1.14c-1.29,0.02-2.59,0.02-3.88,0c-0.77-0.01-1.17-0.43-1.18-1.19c-0.02-0.77-0.02-1.54,0-2.32
		c0.02-0.74,0.4-1.11,1.14-1.15c0.05,0,0.09,0,0.14,0c0.61,0,1.23,0,1.84,0c0.66,0,1.32-0.01,1.98,0.01
		c0.74,0.02,1.14,0.4,1.17,1.14C41.25,19.37,41.25,20.16,41.21,20.96z"/>
	<path class="st1" d="M38.1,30.78c-0.11-0.01-0.23,0-0.34,0c-5.35,0-10.7,0-16.05,0c-0.23,0-0.48-0.03-0.67,0.06
		c-0.17,0.08-0.37,0.32-0.37,0.48c0.01,0.17,0.22,0.37,0.39,0.47c0.14,0.08,0.36,0.03,0.54,0.03c2.71,0,5.42,0,8.13,0
		c2.78,0,5.55,0,8.33,0c0.37,0,0.72-0.05,0.74-0.5C38.83,30.84,38.47,30.79,38.1,30.78z"/>
	<path class="st1" d="M28.34,33.14c-2.32,0-4.63,0-6.95,0c-0.37,0-0.73,0.05-0.72,0.51c0.01,0.45,0.37,0.5,0.74,0.5
		c1.16-0.01,2.32,0,3.48,0c1.16,0,2.32,0.03,3.48-0.02c0.24-0.01,0.63-0.27,0.67-0.46C29.09,33.23,28.72,33.14,28.34,33.14z"/>
	<path class="st1" d="M23.12,15.41c0.59,0,1.19,0.05,1.77-0.02c0.24-0.03,0.45-0.32,0.67-0.49c-0.22-0.18-0.43-0.5-0.65-0.51
		c-1.2-0.05-2.41-0.05-3.62,0c-0.22,0.01-0.43,0.34-0.64,0.53c0.23,0.16,0.45,0.44,0.7,0.47C21.93,15.46,22.53,15.41,23.12,15.41z"
		/>
	<path class="st1" d="M34.57,33.17c-0.9-0.05-1.81-0.05-2.71,0c-0.19,0.01-0.36,0.31-0.54,0.47c0.18,0.17,0.34,0.44,0.54,0.48
		c0.44,0.07,0.9,0.02,1.35,0.02c0.45,0,0.91,0.05,1.35-0.02c0.2-0.03,0.36-0.31,0.54-0.48C34.93,33.48,34.76,33.18,34.57,33.17z"/>
	<path class="st1" d="M38.05,18.76c-0.51,0.02-0.96,0.47-0.97,0.97c-0.01,0.53,0.46,1.01,1,1.01c0.54,0,1.01-0.47,1-1
		C39.07,19.2,38.59,18.74,38.05,18.76z"/>
</g>
</svg>
