<?xml version="1.0" encoding="utf-8"?>
<!-- Generator: Adobe Illustrator 24.0.1, SVG Export Plug-In . SVG Version: 6.00 Build 0)  -->
<svg version="1.1" id="Layer_1" xmlns="http://www.w3.org/2000/svg" xmlns:xlink="http://www.w3.org/1999/xlink" x="0px" y="0px"
	 viewBox="0 0 21 31.63" style="enable-background:new 0 0 21 31.63;" xml:space="preserve">
<style type="text/css">
	.st0{fill:#2B9C47;}
	.st1{fill:none;stroke:#FFFFFF;stroke-miterlimit:10;}
</style>
<g>
	<g>
		<g>
			<path class="st0" d="M10.5,1185.11c-4.69,0-8.5-3.81-8.5-8.5s3.81-8.5,8.5-8.5s8.5,3.81,8.5,8.5S15.19,1185.11,10.5,1185.11z
				 M10.5,1169.11c-4.14,0-7.5,3.36-7.5,7.5s3.36,7.5,7.5,7.5s7.5-3.36,7.5-7.5S14.64,1169.11,10.5,1169.11z"/>
		</g>
		<g>
			<path class="st0" d="M9.83,1180.75l-3.9-3.05c-0.22-0.17-0.26-0.48-0.08-0.7c0.17-0.22,0.48-0.26,0.7-0.08l3.04,2.38l4.01-6.11
				c0.15-0.23,0.46-0.29,0.69-0.14c0.23,0.15,0.29,0.46,0.14,0.69L9.83,1180.75z"/>
		</g>
	</g>
</g>
<polyline class="st1" points="16.25,1.54 1.98,15.81 16.25,30.08 "/>
</svg>
