<?xml version="1.0" encoding="utf-8"?>
<!-- Generator: Adobe Illustrator 24.0.1, SVG Export Plug-In . SVG Version: 6.00 Build 0)  -->
<svg version="1.1" id="Layer_1" xmlns="http://www.w3.org/2000/svg" xmlns:xlink="http://www.w3.org/1999/xlink" x="0px" y="0px"
	 viewBox="0 0 21 17.75" style="enable-background:new 0 0 21 17.75;" xml:space="preserve">
<style type="text/css">
	.st0{fill:#2B9C47;}
</style>
<g>
	<g>
		<g>
			<path class="st0" d="M10.5,17.38c-4.69,0-8.5-3.81-8.5-8.5s3.81-8.5,8.5-8.5S19,4.19,19,8.88S15.19,17.38,10.5,17.38z M10.5,1.38
				C6.36,1.38,3,4.74,3,8.88s3.36,7.5,7.5,7.5s7.5-3.36,7.5-7.5S14.64,1.38,10.5,1.38z"/>
		</g>
		<g>
			<path class="st0" d="M9.83,13.01l-3.9-3.05c-0.22-0.17-0.26-0.48-0.08-0.7C6.02,9.04,6.33,9,6.55,9.17l3.04,2.38l4.01-6.11
				c0.15-0.23,0.46-0.29,0.69-0.14c0.23,0.15,0.29,0.46,0.14,0.69L9.83,13.01z"/>
		</g>
	</g>
</g>
<g>
	<g>
		<g>
			<path class="st0" d="M10.5,1180.73c-4.69,0-8.5-3.81-8.5-8.5s3.81-8.5,8.5-8.5s8.5,3.81,8.5,8.5S15.19,1180.73,10.5,1180.73z
				 M10.5,1164.73c-4.14,0-7.5,3.36-7.5,7.5s3.36,7.5,7.5,7.5s7.5-3.36,7.5-7.5S14.64,1164.73,10.5,1164.73z"/>
		</g>
		<g>
			<path class="st0" d="M9.83,1176.37l-3.9-3.05c-0.22-0.17-0.26-0.48-0.08-0.7c0.17-0.22,0.48-0.26,0.7-0.08l3.04,2.38l4.01-6.11
				c0.15-0.23,0.46-0.29,0.69-0.14c0.23,0.15,0.29,0.46,0.14,0.69L9.83,1176.37z"/>
		</g>
	</g>
</g>
</svg>
